<svg width="76" height="73" viewBox="0 0 76 73" fill="none" xmlns="http://www.w3.org/2000/svg">
<g filter="url(#filter0_d_311_348)">
<path fill-rule="evenodd" clip-rule="evenodd" d="M38 50C37.97 42.5533 31.2658 36.525 23 36.525C31.2843 36.525 38 30.4696 38 23C38.0299 30.4467 44.7342 36.475 53 36.475C44.7156 36.475 38 42.5304 38 50Z" fill="url(#paint0_linear_311_348)"/>
<path d="M38.0068 26.5254C39.4107 31.3671 43.5984 35.1599 48.8926 36.4746C43.5804 37.7938 39.3818 41.6085 37.9922 46.4736C36.5879 41.6321 32.4007 37.8388 27.1064 36.5244C32.4191 35.2053 36.6173 31.391 38.0068 26.5254Z" stroke="url(#paint1_linear_311_348)"/>
</g>
<defs>
<filter id="filter0_d_311_348" x="0.5" y="0.5" width="75" height="72" filterUnits="userSpaceOnUse" color-interpolation-filters="sRGB">
<feFlood flood-opacity="0" result="BackgroundImageFix"/>
<feColorMatrix in="SourceAlpha" type="matrix" values="0 0 0 0 0 0 0 0 0 0 0 0 0 0 0 0 0 0 127 0" result="hardAlpha"/>
<feOffset/>
<feGaussianBlur stdDeviation="11.25"/>
<feComposite in2="hardAlpha" operator="out"/>
<feColorMatrix type="matrix" values="0 0 0 0 0.852998 0 0 0 0 0.63049 0 0 0 0 0.29289 0 0 0 1 0"/>
<feBlend mode="normal" in2="BackgroundImageFix" result="effect1_dropShadow_311_348"/>
<feBlend mode="normal" in="SourceGraphic" in2="effect1_dropShadow_311_348" result="shape"/>
</filter>
<linearGradient id="paint0_linear_311_348" x1="43.122" y1="43.7439" x2="38.285" y2="27.9568" gradientUnits="userSpaceOnUse">
<stop offset="0.834889" stop-color="#D4A661"/>
<stop offset="1" stop-color="#E2D7C6"/>
</linearGradient>
<linearGradient id="paint1_linear_311_348" x1="33.5655" y1="20.2032" x2="47.0236" y2="52.4254" gradientUnits="userSpaceOnUse">
<stop stop-color="#E9E9E9"/>
<stop offset="0.764423" stop-color="#666666"/>
</linearGradient>
</defs>
</svg>
